<svg xmlns="http://www.w3.org/2000/svg" viewBox="0 0 64.14 64.14"><defs><style>.cls-1{fill:#007f8d;}</style></defs><title>BE</title><g id="Capa_2" data-name="Capa 2"><g id="Capa_13" data-name="Capa 13"><path class="cls-1" d="M24.59,33.18H17.33v6.67h6.93c1,0,3-.36,3-3.24C27.22,33.15,24.59,33.18,24.59,33.18Z"/><path class="cls-1" d="M43.19,29.33c-3.85,0-4.39,3.85-4.39,3.85H47S47,29.33,43.19,29.33Z"/><path class="cls-1" d="M0,0V64.14H64.14V0ZM37.72,20.8H48v3.07H37.72Zm-5.2,16.12c0,7.62-7.93,7.37-7.93,7.37h-13v-25h13c3.95,0,7.06,2.18,7.06,6.64s-3.81,4.75-3.81,4.75C32.86,30.72,32.52,36.92,32.52,36.92Zm19.26-.41H38.84a4.06,4.06,0,0,0,4.39,4.34c4.15,0,4-2.68,4-2.68h4.39c0,7.12-8.54,6.64-8.54,6.64-10.25,0-9.59-9.54-9.59-9.54s0-9.59,9.59-9.59C53.19,25.68,51.77,36.51,51.77,36.51Z"/><path class="cls-1" d="M26.35,26.36c0-2.6-1.77-2.6-1.77-2.6H17.33v5.57h6.81C25.32,29.33,26.35,29,26.35,26.36Z"/></g></g></svg>