<svg xmlns="http://www.w3.org/2000/svg" viewBox="0 0 64.14 64.14"><defs><style>.cls-1{fill:#007f8d;}</style></defs><title>Recurso 14</title><g id="Capa_2" data-name="Capa 2"><g id="Capa_13" data-name="Capa 13"><path class="cls-1" d="M0,0V64.14H64.14V0ZM55.29,42.55A13.61,13.61,0,0,1,41.73,56.11H22.23A13.61,13.61,0,0,1,8.66,42.55V21.77A13.61,13.61,0,0,1,22.23,8.2h19.5A13.61,13.61,0,0,1,55.29,21.77Z"/><path class="cls-1" d="M41.73,11.79H22.23a10,10,0,0,0-10,10V42.55a10,10,0,0,0,10,10h19.5a10,10,0,0,0,10-10V21.77a10,10,0,0,0-10-10ZM32,44.81A12.84,12.84,0,1,1,44.89,32,12.84,12.84,0,0,1,32,44.81ZM45.09,22a3,3,0,1,1,3-3A3,3,0,0,1,45.09,22Z"/><circle class="cls-1" cx="31.99" cy="31.98" r="8.41"/></g></g></svg>