<svg xmlns="http://www.w3.org/2000/svg" viewBox="0 0 64.14 64.14"><defs><style>.cls-1{fill:#007f8d;}</style></defs><title>TW</title><g id="Capa_2" data-name="Capa 2"><g id="Capa_13" data-name="Capa 13"><path class="cls-1" d="M0,0V64.14H64.14V0ZM47.09,24.1q0,.5,0,1c0,10.24-7.79,22-22,22a21.93,21.93,0,0,1-11.88-3.48,15.72,15.72,0,0,0,1.85.11,15.55,15.55,0,0,0,9.62-3.32,7.76,7.76,0,0,1-7.24-5.38,7.76,7.76,0,0,0,3.5-.13,7.75,7.75,0,0,1-6.22-7.6s0-.06,0-.1a7.73,7.73,0,0,0,3.51,1,7.76,7.76,0,0,1-2.4-10.35,22,22,0,0,0,16,8.1A7.75,7.75,0,0,1,45,18.91,15.52,15.52,0,0,0,49.91,17a7.77,7.77,0,0,1-3.41,4.29A15.5,15.5,0,0,0,51,20.09,15.74,15.74,0,0,1,47.09,24.1Z"/></g></g></svg>